# xmcd
#
# Track frame offsets:
#	150
#	18339
#	39068
#	52594
#	70264
#	82982
#	98629
#	116770
#	132334
#	149770
#	163297
#	178802
#	197385
#	211224
#	229962
#
# Disc length: 3228 seconds
#
# Revision: 1
# Processed by: cddbd v1.5.2PL0 Copyright (c) Steve Scherf et al.
# Submitted via: audiograbber 1.83.01
#
DISCID=c90c9a0f
DTITLE=Teresa James - By Request
DYEAR=2007
DGENRE=
TTITLE0=It Came From The South
TTITLE1=He Thinks I Still Care
TTITLE2=You Can't Get The Hell Out Of Texas
TTITLE3=Cryin' Time
TTITLE4=Face Of Love
TTITLE5=If You're Already Gone
TTITLE6=Cowboy Jazz
TTITLE7=Sorry Ass
TTITLE8=High Country
TTITLE9=Blue Train
TTITLE10=Livin' It Down
TTITLE11=Just A Thought
TTITLE12=Going Down Swinging
TTITLE13=19th Nervous Breakdown
TTITLE14=Arizone Yodeler
EXTD=
EXTT0=
EXTT1=
EXTT2=
EXTT3=
EXTT4=
EXTT5=
EXTT6=
EXTT7=
EXTT8=
EXTT9=
EXTT10=
EXTT11=
EXTT12=
EXTT13=
EXTT14=
PLAYORDER=
